<svg xmlns="http://www.w3.org/2000/svg" width="1200" height="675" viewBox="0 0 1200 675" role="img" aria-labelledby="title desc">
  <title id="title">SPEC-008 focused Stint Pace reference</title>
  <desc id="desc">VER stint one and PER stint one compared over selected stint laps, with a separate driver-identifiable exclusion strip, direct line labels, and an in-chart median summary.</desc>
  <rect width="1200" height="675" fill="#f5f7fa"/><rect x="48" y="30" width="1104" height="615" rx="12" fill="#fff" stroke="#cbd5e1"/>
  <text x="600" y="68" text-anchor="middle" font-family="Arial, sans-serif" font-size="24" font-weight="700" fill="#172033">2023 Bahrain GP Race Stint Pace</text>
  <text x="600" y="93" text-anchor="middle" font-family="Arial, sans-serif" font-size="14" fill="#64748b">Soft compound</text>
  <rect x="105" y="121" width="1000" height="42" fill="#f3f4f6" stroke="#cbd5e1"/><text x="94" y="145" text-anchor="end" font-family="Arial" font-size="11" fill="#64748b">Excluded laps</text>
  <g fill="none" stroke="#6b7280" stroke-width="2"><circle cx="155" cy="151" r="5"/><circle cx="215" cy="151" r="5"/><circle cx="935" cy="151" r="5"/><rect x="150" y="127" width="10" height="10"/><rect x="210" y="127" width="10" height="10"/><rect x="1020" y="127" width="10" height="10"/></g>
  <rect x="105" y="175" width="1000" height="400" fill="#fbfcfe" stroke="#cbd5e1"/>
  <g stroke="#e2e8f0"><line x1="105" y1="225" x2="1105" y2="225"/><line x1="105" y1="300" x2="1105" y2="300"/><line x1="105" y1="375" x2="1105" y2="375"/><line x1="105" y1="450" x2="1105" y2="450"/><line x1="105" y1="525" x2="1105" y2="525"/></g>
  <g font-family="Arial" font-size="11" fill="#64748b"><text x="67" y="229">99.4</text><text x="67" y="304">99.0</text><text x="67" y="379">98.6</text><text x="67" y="454">98.2</text><text x="67" y="529">98.0</text></g>
  <rect x="120" y="194" width="345" height="78" rx="6" fill="#fff" fill-opacity="0.95" stroke="#cbd5e1"/><g font-family="Arial" font-size="11" fill="#334155"><text x="132" y="215">VER S1: representative laps 11 · median 98.154 s · IQR 0.412 s</text><text x="132" y="234">PER S1: representative laps 14 · median 98.817 s · IQR 0.406 s</text><text x="132" y="255" font-weight="700">VER median advantage: 0.663 s</text></g>
  <path d="M215 518 L275 522 L335 512 L395 520 L455 514 L515 492 L575 466 L635 443 L695 420 L755 397 L815 375 L875 348 L935 390" fill="none" stroke="#1d4ed8" stroke-width="3"/><g fill="#1d4ed8"><circle cx="215" cy="518" r="4"/><circle cx="275" cy="522" r="4"/><circle cx="335" cy="512" r="4"/><circle cx="395" cy="520" r="4"/><circle cx="455" cy="514" r="4"/><circle cx="515" cy="492" r="4"/><circle cx="575" cy="466" r="4"/><circle cx="635" cy="443" r="4"/><circle cx="695" cy="420" r="4"/><circle cx="755" cy="397" r="4"/><circle cx="815" cy="375" r="4"/><circle cx="875" cy="348" r="4"/><circle cx="935" cy="390" r="4"/></g>
  <path d="M215 330 L275 345 L335 420 L395 360 L455 340 L515 255 L575 315 L635 285 L695 240 L755 222 L815 232 L875 205 L935 350 L995 390 L1055 340" fill="none" stroke="#1d4ed8" stroke-width="3" stroke-dasharray="9 6"/><g fill="#1d4ed8"><rect x="211" y="326" width="8" height="8"/><rect x="271" y="341" width="8" height="8"/><rect x="331" y="416" width="8" height="8"/><rect x="391" y="356" width="8" height="8"/><rect x="451" y="336" width="8" height="8"/><rect x="511" y="251" width="8" height="8"/><rect x="571" y="311" width="8" height="8"/><rect x="631" y="281" width="8" height="8"/><rect x="691" y="236" width="8" height="8"/><rect x="751" y="218" width="8" height="8"/><rect x="811" y="228" width="8" height="8"/><rect x="871" y="201" width="8" height="8"/><rect x="931" y="346" width="8" height="8"/><rect x="991" y="386" width="8" height="8"/><rect x="1051" y="336" width="8" height="8"/></g>
  <text x="947" y="394" font-family="Arial" font-size="12" font-weight="700" fill="#1d4ed8">VER S1</text><text x="1066" y="344" font-family="Arial" font-size="12" font-weight="700" fill="#1d4ed8">PER S1</text>
  <g font-family="Arial" font-size="11" fill="#334155"><line x1="620" y1="193" x2="652" y2="193" stroke="#1d4ed8" stroke-width="3"/><circle cx="636" cy="193" r="4" fill="#1d4ed8"/><text x="660" y="197">VER S1</text><line x1="720" y1="193" x2="752" y2="193" stroke="#1d4ed8" stroke-width="3" stroke-dasharray="8 5"/><rect x="732" y="189" width="8" height="8" fill="#1d4ed8"/><text x="760" y="197">PER S1</text><circle cx="842" cy="193" r="5" fill="none" stroke="#6b7280" stroke-width="2"/><text x="854" y="197">Hollow marker = excluded lap</text></g>
  <text x="605" y="612" text-anchor="middle" font-family="Arial" font-size="13" fill="#334155">Stint lap</text>
</svg>
